<svg xmlns="http://www.w3.org/2000/svg" xmlns:xlink="http://www.w3.org/1999/xlink" width="45" zoomAndPan="magnify" viewBox="0 0 33.75 37.5" height="50" preserveAspectRatio="xMidYMid meet" version="1.0"><defs><clipPath id="7b5446815b"><path d="M 1.464844 0 L 31.992188 0 L 31.992188 37.007812 L 1.464844 37.007812 Z M 1.464844 0 " clip-rule="nonzero"/></clipPath><clipPath id="6540a08366"><path d="M 4.570312 3.390625 L 28.992188 3.390625 L 28.992188 27.816406 L 4.570312 27.816406 Z M 4.570312 3.390625 " clip-rule="nonzero"/></clipPath><clipPath id="b322e0c9a0"><path d="M 9.625 11 L 16 11 L 16 20.53125 L 9.625 20.53125 Z M 9.625 11 " clip-rule="nonzero"/></clipPath><clipPath id="a349fec1eb"><path d="M 10 10.539062 L 17 10.539062 L 17 20.53125 L 10 20.53125 Z M 10 10.539062 " clip-rule="nonzero"/></clipPath><clipPath id="82b9a8a374"><path d="M 18 11 L 23.871094 11 L 23.871094 20.53125 L 18 20.53125 Z M 18 11 " clip-rule="nonzero"/></clipPath><clipPath id="3e7f22a7dd"><path d="M 17 10.539062 L 23 10.539062 L 23 20.53125 L 17 20.53125 Z M 17 10.539062 " clip-rule="nonzero"/></clipPath></defs><g clip-path="url(#7b5446815b)"><path fill="#57b846" d="M 16.746094 0.00390625 C 8.304688 0.00390625 1.460938 6.847656 1.460938 15.289062 C 1.460938 26.898438 16.746094 37.003906 16.746094 37.003906 C 16.746094 37.003906 32.035156 26.898438 32.035156 15.289062 C 32.035156 6.847656 25.191406 0.00390625 16.746094 0.00390625 Z M 16.746094 27.171875 C 10.1875 27.171875 4.867188 21.851562 4.867188 15.289062 C 4.867188 8.726562 10.1875 3.410156 16.746094 3.410156 C 23.308594 3.410156 28.628906 8.726562 28.628906 15.289062 C 28.628906 21.851562 23.308594 27.171875 16.746094 27.171875 Z M 16.746094 27.171875 " fill-opacity="1" fill-rule="nonzero"/></g><path fill="#57b846" d="M 9.941406 13.421875 L 17.03125 16.378906 L 24.125 13.539062 L 17.03125 10.703125 Z M 9.941406 13.421875 " fill-opacity="1" fill-rule="nonzero"/><path fill="#57b846" d="M 12.777344 15.371094 L 12.777344 18.503906 C 12.777344 19.289062 14.679688 19.921875 17.03125 19.921875 C 19.382812 19.921875 21.289062 19.289062 21.289062 18.503906 L 21.289062 15.4375 L 17.027344 17.144531 Z M 12.777344 15.371094 " fill-opacity="1" fill-rule="nonzero"/><g clip-path="url(#6540a08366)"><path fill="#000000" d="M 28.933594 15.570312 C 28.933594 16.371094 28.855469 17.164062 28.699219 17.949219 C 28.542969 18.734375 28.3125 19.496094 28.003906 20.234375 C 27.699219 20.972656 27.324219 21.675781 26.878906 22.339844 C 26.4375 23.003906 25.929688 23.621094 25.363281 24.1875 C 24.800781 24.75 24.183594 25.257812 23.519531 25.699219 C 22.855469 26.144531 22.152344 26.519531 21.414062 26.828125 C 20.675781 27.132812 19.914062 27.363281 19.128906 27.519531 C 18.34375 27.675781 17.550781 27.753906 16.75 27.753906 C 15.953125 27.753906 15.160156 27.675781 14.375 27.519531 C 13.589844 27.363281 12.828125 27.132812 12.089844 26.828125 C 11.351562 26.519531 10.648438 26.144531 9.984375 25.699219 C 9.316406 25.257812 8.703125 24.75 8.136719 24.1875 C 7.570312 23.621094 7.066406 23.003906 6.621094 22.339844 C 6.179688 21.675781 5.804688 20.972656 5.496094 20.234375 C 5.191406 19.496094 4.960938 18.734375 4.804688 17.949219 C 4.648438 17.164062 4.570312 16.371094 4.570312 15.570312 C 4.570312 14.773438 4.648438 13.980469 4.804688 13.195312 C 4.960938 12.410156 5.191406 11.648438 5.496094 10.910156 C 5.804688 10.171875 6.179688 9.46875 6.621094 8.804688 C 7.066406 8.140625 7.570312 7.523438 8.136719 6.957031 C 8.703125 6.394531 9.316406 5.886719 9.984375 5.445312 C 10.648438 5 11.351562 4.625 12.089844 4.316406 C 12.828125 4.011719 13.589844 3.78125 14.375 3.625 C 15.160156 3.46875 15.953125 3.390625 16.75 3.390625 C 17.550781 3.390625 18.34375 3.46875 19.128906 3.625 C 19.914062 3.78125 20.675781 4.011719 21.414062 4.316406 C 22.152344 4.625 22.855469 5 23.519531 5.445312 C 24.183594 5.886719 24.800781 6.394531 25.363281 6.957031 C 25.929688 7.523438 26.4375 8.140625 26.878906 8.804688 C 27.324219 9.46875 27.699219 10.171875 28.003906 10.910156 C 28.3125 11.648438 28.542969 12.410156 28.699219 13.195312 C 28.855469 13.980469 28.933594 14.773438 28.933594 15.570312 Z M 28.933594 15.570312 " fill-opacity="1" fill-rule="nonzero"/></g><g clip-path="url(#b322e0c9a0)"><path fill="#57b846" d="M 9.625 20.605469 C 10.515625 20.285156 12.671875 19.714844 15.464844 20.363281 C 14.582031 19.867188 13.042969 19.417969 10.523438 19.828125 L 10.164062 19.886719 L 10.164062 11.8125 C 10.019531 11.808594 9.828125 11.8125 9.625 11.824219 L 9.625 20.605469 " fill-opacity="1" fill-rule="nonzero"/></g><g clip-path="url(#a349fec1eb)"><path fill="#57b846" d="M 16.441406 20.273438 L 16.441406 12.488281 C 16.1875 12.152344 14.742188 10.546875 10.78125 11.113281 L 10.78125 19.164062 C 11.375 19.085938 11.917969 19.046875 12.410156 19.046875 C 14.566406 19.046875 15.804688 19.734375 16.441406 20.273438 " fill-opacity="1" fill-rule="nonzero"/></g><g clip-path="url(#82b9a8a374)"><path fill="#57b846" d="M 23.878906 20.605469 L 23.878906 11.824219 C 23.675781 11.8125 23.484375 11.808594 23.339844 11.8125 L 23.339844 19.886719 L 22.980469 19.828125 C 20.457031 19.417969 18.914062 19.867188 18.03125 20.363281 C 20.828125 19.710938 22.984375 20.285156 23.878906 20.605469 " fill-opacity="1" fill-rule="nonzero"/></g><g clip-path="url(#3e7f22a7dd)"><path fill="#57b846" d="M 22.722656 19.164062 L 22.722656 11.113281 C 18.757812 10.542969 17.316406 12.148438 17.058594 12.488281 L 17.058594 20.273438 C 17.84375 19.609375 19.53125 18.726562 22.722656 19.164062 " fill-opacity="1" fill-rule="nonzero"/></g></svg>