<svg xmlns="http://www.w3.org/2000/svg" xmlns:xlink="http://www.w3.org/1999/xlink" width="100" zoomAndPan="magnify" viewBox="0 0 75 74.999997" height="100" preserveAspectRatio="xMidYMid meet" version="1.0"><defs><clipPath id="54808a4fe5"><path d="M 22.652344 35.074219 L 29.402344 35.074219 L 29.402344 41.824219 L 22.652344 41.824219 Z M 22.652344 35.074219 " clip-rule="nonzero"/></clipPath><clipPath id="347d24f9e2"><path d="M 4.523438 20 L 32 20 L 32 60.707031 L 4.523438 60.707031 Z M 4.523438 20 " clip-rule="nonzero"/></clipPath><clipPath id="557c360c4e"><path d="M 43 20 L 70.523438 20 L 70.523438 60.707031 L 43 60.707031 Z M 43 20 " clip-rule="nonzero"/></clipPath></defs><g clip-path="url(#54808a4fe5)"><path fill="#ffffff" d="M 29.402344 38.449219 C 29.402344 38.898438 29.316406 39.328125 29.144531 39.742188 C 28.972656 40.15625 28.726562 40.519531 28.410156 40.835938 C 28.09375 41.152344 27.730469 41.398438 27.316406 41.566406 C 26.902344 41.738281 26.472656 41.824219 26.027344 41.824219 C 25.578125 41.824219 25.148438 41.738281 24.734375 41.566406 C 24.320312 41.398438 23.957031 41.152344 23.640625 40.835938 C 23.324219 40.519531 23.078125 40.15625 22.90625 39.742188 C 22.734375 39.328125 22.652344 38.898438 22.652344 38.449219 C 22.652344 38.003906 22.734375 37.570312 22.90625 37.160156 C 23.078125 36.746094 23.324219 36.378906 23.640625 36.0625 C 23.957031 35.746094 24.320312 35.503906 24.734375 35.332031 C 25.148438 35.160156 25.578125 35.074219 26.027344 35.074219 C 26.472656 35.074219 26.902344 35.160156 27.316406 35.332031 C 27.730469 35.503906 28.09375 35.746094 28.410156 36.0625 C 28.726562 36.378906 28.972656 36.746094 29.144531 37.160156 C 29.316406 37.570312 29.402344 38.003906 29.402344 38.449219 Z M 29.402344 38.449219 " fill-opacity="1" fill-rule="nonzero"/></g><g clip-path="url(#347d24f9e2)"><path fill="#57b846" d="M 4.527344 60.789062 C 8.652344 59.296875 18.617188 56.660156 31.554688 59.671875 C 27.464844 57.378906 20.339844 55.292969 8.675781 57.191406 L 7.019531 57.464844 L 7.019531 20.09375 C 6.347656 20.085938 5.460938 20.109375 4.527344 20.148438 L 4.527344 60.789062 " fill-opacity="1" fill-rule="nonzero"/></g><path fill="#57b846" d="M 36.070312 59.253906 L 36.070312 23.21875 C 34.898438 21.667969 28.207031 14.242188 9.875 16.871094 L 9.875 54.125 C 12.621094 53.746094 15.128906 53.582031 17.410156 53.582031 C 27.398438 53.582031 33.117188 56.753906 36.070312 59.253906 " fill-opacity="1" fill-rule="nonzero"/><g clip-path="url(#557c360c4e)"><path fill="#57b846" d="M 70.46875 60.789062 L 70.46875 20.148438 C 69.535156 20.109375 68.648438 20.089844 67.976562 20.09375 L 67.976562 57.464844 L 66.320312 57.191406 C 54.636719 55.285156 47.511719 57.378906 43.429688 59.675781 C 56.367188 56.65625 66.34375 59.296875 70.46875 60.789062 " fill-opacity="1" fill-rule="nonzero"/></g><path fill="#57b846" d="M 65.121094 54.125 L 65.121094 16.871094 C 46.78125 14.234375 40.117188 21.652344 38.925781 23.21875 L 38.925781 59.253906 C 42.554688 56.1875 50.367188 52.101562 65.121094 54.125 " fill-opacity="1" fill-rule="nonzero"/></svg>